HIERARCHY
ROOT Pelvis
{
	OFFSET 0.000000 0.000000 0.000000
	CHANNELS 6 Xposition Yposition Zposition Xrotation Yrotation Zrotation
	JOINT LeftUpLeg_virtual
	{
		OFFSET 0.000000 0.000000 0.000000
		CHANNELS 3 Xrotation Yrotation Zrotation
		JOINT LeftUpLeg
		{
			OFFSET 18.735201 -5.666702 -4.541200
			CHANNELS 3 Xrotation Yrotation Zrotation
			JOINT LeftLeg
			{
				OFFSET -0.021200 -31.938179 0.493100
				CHANNELS 3 Xrotation Yrotation Zrotation
				JOINT LeftFoot
				{
					OFFSET 0.021200 -31.938179 -4.336299
					CHANNELS 3 Xrotation Yrotation Zrotation
					JOINT LeftToeBase
					{
						OFFSET 0.943001 -26.722000 15.023500
						CHANNELS 3 Xrotation Yrotation Zrotation
						End Site
						{
							OFFSET 0 0 0
						}
					}
				}
			}
		}
	}
	JOINT RightUpLeg_virtual
	{
		OFFSET 0.000000 0.000000 0.000000
		CHANNELS 3 Xrotation Yrotation Zrotation
		JOINT RightUpLeg
		{
			OFFSET -18.735201 -5.666702 -4.541200
			CHANNELS 3 Xrotation Yrotation Zrotation
			JOINT RightLeg
			{
				OFFSET 0.018946 -31.938133 0.493100
				CHANNELS 3 Xrotation Yrotation Zrotation
				JOINT RightFoot
				{
					OFFSET -0.018946 -31.938126 -4.336299
					CHANNELS 3 Xrotation Yrotation Zrotation
					JOINT RightToeBase
					{
						OFFSET -0.943001 -26.722004 15.023500
						CHANNELS 3 Xrotation Yrotation Zrotation
						End Site
						{
							OFFSET 0 0 0
						}
					}
				}
			}
		}
	}
	JOINT Hips_virtual
	{
		OFFSET 0.000000 0.000000 0.000000
		CHANNELS 3 Xrotation Yrotation Zrotation
		JOINT Hips
		{
			OFFSET -0.000000 -0.000000 -0.000000
			CHANNELS 3 Xrotation Yrotation Zrotation
			JOINT Spine
			{
				OFFSET 0.000000 10.199997 -0.299500
				CHANNELS 3 Xrotation Yrotation Zrotation
				JOINT Spine1
				{
					OFFSET 0.000000 11.900002 -1.516600
					CHANNELS 3 Xrotation Yrotation Zrotation
					JOINT Spine2
					{
						OFFSET 0.000000 13.600006 -2.842500
						CHANNELS 3 Xrotation Yrotation Zrotation
						JOINT Neck_virtual
						{
							OFFSET 0.000000 0.000000 0.000000
							CHANNELS 3 Xrotation Yrotation Zrotation
							JOINT Neck
							{
								OFFSET 0.000000 9.624100 -2.890100
								CHANNELS 3 Xrotation Yrotation Zrotation
								JOINT Head
								{
									OFFSET 0.000000 14.068802 -1.351900
									CHANNELS 3 Xrotation Yrotation Zrotation
									End Site
									{
										OFFSET 0 0 0
									}
								}
							}
						}
						JOINT LeftShoulder_virtual
						{
							OFFSET 0.000000 0.000000 0.000000
							CHANNELS 3 Xrotation Yrotation Zrotation
							JOINT LeftShoulder
							{
								OFFSET 15.263000 10.923401 -0.547700
								CHANNELS 3 Xrotation Yrotation Zrotation
								JOINT LeftArm
								{
									OFFSET 25.438599 -2.830597 -13.032500
									CHANNELS 3 Xrotation Yrotation Zrotation
									JOINT LeftForeArm
									{
										OFFSET 29.960503 0.000000 0.000000
										CHANNELS 3 Xrotation Yrotation Zrotation
										JOINT LeftHand
										{
											OFFSET 27.849251 0.000000 0.000000
											CHANNELS 3 Xrotation Yrotation Zrotation
											End Site
											{
												OFFSET 0 0 0
											}
										}
									}
								}
							}
						}
						JOINT RightShoulder_virtual
						{
							OFFSET 0.000000 0.000000 0.000000
							CHANNELS 3 Xrotation Yrotation Zrotation
							JOINT RightShoulder
							{
								OFFSET -15.263000 10.923401 -0.547700
								CHANNELS 3 Xrotation Yrotation Zrotation
								JOINT RightArm
								{
									OFFSET -25.438599 -2.830597 -13.032500
									CHANNELS 3 Xrotation Yrotation Zrotation
									JOINT RightForeArm
									{
										OFFSET -29.960503 0.000000 0.000000
										CHANNELS 3 Xrotation Yrotation Zrotation
										JOINT RightHand
										{
											OFFSET -27.849251 0.000000 0.000000
											CHANNELS 3 Xrotation Yrotation Zrotation
											End Site
											{
												OFFSET 0 0 0
											}
										}
									}
								}
							}
						}
					}
				}
			}
		}
	}
}
MOTION
Frames: 13
Frame Time: 0.03333333
1.401839 89.240685 1.344469 0.000000 0.000000 0.000000 2.636500 -24.490407 -0.585627 -38.437648 4.217685 14.795421 43.277609 -0.447400 0.548392 -6.139070 -0.854164 -5.053409 0.000000 0.000000 0.000000 10.671017 -8.310664 2.672972 -16.286123 -8.554663 -12.956767 31.964373 -4.214118 1.581142 -17.284709 -8.846426 10.549412 0.000000 0.000000 0.000000 1.438380 -6.202434 0.671668 7.003281 12.538757 -5.724909 15.480784 3.849629 1.109821 6.763801 2.061242 1.265058 0.000000 0.000000 0.000000 1.040361 4.411319 0.027576 0.269461 1.991653 0.034976 0.000000 0.000000 0.000000 3.906029 -0.448399 -0.976328 3.216740 -19.802651 0.511466 -25.042298 -14.509566 -60.221464 -3.455094 -52.084875 -17.093877 0.000000 0.000000 0.000000 3.847028 2.638708 -0.876432 7.943554 19.761221 -6.989447 -31.319839 26.151643 58.297208 -18.648341 64.144089 25.494880 0.000000 0.000000 0.000000 
1.487358 89.157974 1.557928 0.000000 0.000000 0.000000 2.658428 -24.356057 -0.674510 -38.360634 4.288091 14.697621 43.301801 -0.523767 0.617518 -6.144507 -0.966680 -4.998218 0.000000 0.000000 0.000000 10.888054 -7.977816 2.613097 -15.888555 -8.494322 -12.946071 31.681105 -4.378561 1.674634 -17.512200 -9.068837 10.595484 0.000000 0.000000 0.000000 1.566859 -5.946629 0.679106 7.040105 12.398665 -5.597447 15.467269 3.931655 0.922055 6.772471 2.127375 1.145958 0.000000 0.000000 0.000000 1.108481 4.464699 -0.026356 0.274409 1.995246 0.039892 0.000000 0.000000 0.000000 3.822912 -0.422990 -1.029970 3.165497 -20.000988 0.587904 -25.011367 -14.668050 -59.949841 -3.411191 -52.298441 -16.836042 0.000000 0.000000 0.000000 3.914648 2.692989 -0.933300 7.979679 19.727555 -7.001954 -31.450392 26.484665 58.471624 -19.060782 64.511717 26.032598 0.000000 0.000000 0.000000 
1.563868 89.076790 1.768718 0.000000 0.000000 0.000000 2.683529 -24.236253 -0.755444 -38.283169 4.352710 14.606646 43.327851 -0.590758 0.679885 -6.148610 -1.066139 -4.947559 0.000000 0.000000 0.000000 11.096167 -7.657965 2.555412 -15.509065 -8.436148 -12.936097 31.416145 -4.532893 1.760391 -17.728007 -9.275813 10.635756 0.000000 0.000000 0.000000 1.700363 -5.697436 0.687490 7.070846 12.223706 -5.466407 15.449314 4.003366 0.735443 6.782060 2.187582 1.026090 0.000000 0.000000 0.000000 1.172841 4.509091 -0.076320 0.276664 1.993408 0.047749 0.000000 0.000000 0.000000 3.738608 -0.402128 -1.081721 3.113601 -20.210272 0.673949 -24.963411 -14.830793 -59.668567 -3.351999 -52.500249 -16.564860 0.000000 0.000000 0.000000 3.982815 2.746278 -0.993066 8.017374 19.698576 -7.030503 -31.566706 26.822844 58.657446 -19.485468 64.875070 26.594965 0.000000 0.000000 0.000000 
1.631630 88.998116 1.976079 0.000000 0.000000 0.000000 2.711846 -24.131979 -0.828291 -38.205452 4.411307 14.522695 43.355787 -0.648355 0.735871 -6.151490 -1.152714 -4.900843 0.000000 0.000000 0.000000 11.295059 -7.353021 2.499328 -15.148202 -8.380513 -12.927835 31.171085 -4.677687 1.838819 -17.930901 -9.468056 10.670391 0.000000 0.000000 0.000000 1.837822 -5.454834 0.696785 7.094876 12.021754 -5.334505 15.426366 4.064449 0.549746 6.792151 2.241610 0.905357 0.000000 0.000000 0.000000 1.232653 4.545633 -0.122796 0.276123 1.987092 0.058101 0.000000 0.000000 0.000000 3.653361 -0.386006 -1.131716 3.061600 -20.430327 0.768629 -24.899946 -14.994155 -59.377102 -3.278295 -52.686904 -16.281552 0.000000 0.000000 0.000000 4.050686 2.798647 -1.055247 8.056510 19.675171 -7.073888 -31.671372 27.164957 58.855549 -19.925858 65.234918 27.184626 0.000000 0.000000 0.000000 
1.690853 88.922592 2.179486 0.000000 0.000000 0.000000 2.743277 -24.044224 -0.893027 -38.127694 4.463642 14.445806 43.385150 -0.696499 0.785943 -6.153595 -1.226562 -4.857299 0.000000 0.000000 0.000000 11.484944 -7.065093 2.444492 -14.805717 -8.327979 -12.922032 30.946610 -4.813623 1.910339 -18.120256 -9.646431 10.699528 0.000000 0.000000 0.000000 1.978085 -5.218788 0.706900 7.111564 11.800478 -5.204193 15.398130 4.114750 0.364817 6.802436 2.289324 0.783736 0.000000 0.000000 0.000000 1.287276 4.575327 -0.166089 0.272780 1.977133 0.070617 0.000000 0.000000 0.000000 3.567481 -0.374715 -1.180100 3.010017 -20.660711 0.870899 -24.822048 -15.155174 -59.075317 -3.190792 -52.856085 -15.987502 0.000000 0.000000 0.000000 4.117487 2.850139 -1.119342 8.096840 19.657962 -7.130803 -31.766605 27.509239 59.066089 -20.383755 65.590532 27.802454 0.000000 0.000000 0.000000 
1.741786 88.850494 2.378586 0.000000 0.000000 0.000000 2.777593 -23.973918 -0.949761 -38.050202 4.509496 14.375894 43.415083 -0.735120 0.830604 -6.155619 -1.287839 -4.816088 0.000000 0.000000 0.000000 11.666382 -6.796226 2.390753 -14.480785 -8.279191 -12.919160 30.742586 -4.941383 1.975352 -18.296014 -9.811851 10.723285 0.000000 0.000000 0.000000 2.120141 -4.989101 0.717743 7.121044 11.567323 -5.077285 15.364608 4.154213 0.180645 6.812753 2.330673 0.661288 0.000000 0.000000 0.000000 1.336227 4.598963 -0.206396 0.266707 1.964202 0.085056 0.000000 0.000000 0.000000 3.481325 -0.368265 -1.227057 2.959287 -20.900703 0.979543 -24.730261 -15.311512 -58.763423 -3.090010 -53.006359 -15.684085 0.000000 0.000000 0.000000 4.182512 2.900724 -1.184871 8.138022 19.647203 -7.199987 -31.854336 27.853032 59.287961 -20.859176 65.939616 28.447227 0.000000 0.000000 0.000000 
1.784784 88.781868 2.573149 0.000000 0.000000 0.000000 2.814467 -23.921764 -0.998718 -37.973290 4.548722 14.312737 43.444463 -0.764203 0.870335 -6.158363 -1.336745 -4.776428 0.000000 0.000000 0.000000 11.840051 -6.548033 2.338137 -14.172350 -8.234725 -12.919437 30.558116 -5.061563 2.034218 -18.458605 -9.965162 10.741780 0.000000 0.000000 0.000000 2.263280 -4.765297 0.729259 7.124724 11.329429 -4.954718 15.326108 4.182866 -0.002633 6.823072 2.365671 0.538174 0.000000 0.000000 0.000000 1.379182 4.617105 -0.243888 0.258025 1.948793 0.101214 0.000000 0.000000 0.000000 3.395267 -0.366583 -1.272826 2.909720 -21.149302 1.093132 -24.624630 -15.461352 -58.441790 -2.976297 -53.136877 -15.372577 0.000000 0.000000 0.000000 4.245122 2.950273 -1.251398 8.179630 19.642641 -7.280303 -31.936076 28.192658 59.518378 -21.350014 66.278113 29.115047 0.000000 0.000000 0.000000 
1.820353 88.716660 2.763024 0.000000 0.000000 0.000000 2.853477 -23.887963 -1.040227 -37.897325 4.581295 14.256043 43.472149 -0.783851 0.905556 -6.162589 -1.373575 -4.737715 0.000000 0.000000 0.000000 12.006518 -6.321343 2.286796 -13.879440 -8.194961 -12.922808 30.391746 -5.174582 2.087254 -18.608828 -10.107073 10.755200 0.000000 0.000000 0.000000 2.407107 -4.546708 0.741436 7.125235 11.093279 -4.836503 15.283175 4.200800 -0.184743 6.833479 2.394383 0.414637 0.000000 0.000000 0.000000 1.415979 4.630133 -0.278794 0.246881 1.931261 0.118883 0.000000 0.000000 0.000000 3.309704 -0.369517 -1.317707 2.861500 -21.405275 1.210038 -24.504880 -15.603193 -58.110922 -2.849914 -53.246990 -15.054148 0.000000 0.000000 0.000000 4.304787 2.998561 -1.318546 8.221214 19.643498 -7.370764 -32.012755 28.523451 59.752646 -21.851619 66.600546 29.798906 0.000000 0.000000 0.000000 
1.849142 88.654762 2.948112 0.000000 0.000000 0.000000 2.894137 -23.872080 -1.074664 -37.822654 4.607335 14.205500 43.497144 -0.794367 0.936601 -6.168875 -1.398796 -4.699602 0.000000 0.000000 0.000000 12.166082 -6.116048 2.236978 -13.601423 -8.159983 -12.928973 30.241643 -5.280641 2.134760 -18.747718 -10.238101 10.763846 0.000000 0.000000 0.000000 2.551432 -4.332670 0.754292 7.125891 10.864164 -4.721889 15.236547 4.208184 -0.365344 6.844134 2.416916 0.290967 0.000000 0.000000 0.000000 1.446631 4.638335 -0.311446 0.233444 1.911875 0.137818 0.000000 0.000000 0.000000 3.225072 -0.376831 -1.362055 2.814703 -21.667199 1.328463 -24.370598 -15.735716 -57.771400 -2.711154 -53.336039 -14.729887 0.000000 0.000000 0.000000 4.361136 3.045269 -1.386008 8.262373 19.648473 -7.470529 -32.084421 28.840091 59.984251 -22.356616 66.900193 30.488592 0.000000 0.000000 0.000000 
1.871925 88.596161 3.128315 0.000000 0.000000 0.000000 2.935943 -23.872975 -1.102407 -37.749602 4.627113 14.160822 43.518755 -0.796300 0.963715 -6.177543 -1.413097 -4.662058 0.000000 0.000000 0.000000 12.318672 -5.931241 2.188984 -13.338133 -8.129599 -12.937445 30.105848 -5.379733 2.177039 -18.876397 -10.358574 10.768184 0.000000 0.000000 0.000000 2.696096 -4.122822 0.767843 7.129915 10.645623 -4.609621 15.187100 4.205294 -0.544107 6.855265 2.433428 0.167453 0.000000 0.000000 0.000000 1.471348 4.642004 -0.342307 0.217913 1.890881 0.157719 0.000000 0.000000 0.000000 3.141851 -0.388204 -1.406265 2.769328 -21.933496 1.446514 -24.221546 -15.857707 -57.423921 -2.560510 -53.403504 -14.400897 0.000000 0.000000 0.000000 4.414008 3.090013 -1.453535 8.302827 19.655854 -7.578849 -32.150202 29.137061 60.205570 -22.855121 67.169726 31.171249 0.000000 0.000000 0.000000 
1.889558 88.540894 3.303478 0.000000 0.000000 0.000000 2.978425 -23.888884 -1.123797 -37.678424 4.641040 14.121804 43.536609 -0.790452 0.987055 -6.188630 -1.417395 -4.625350 0.000000 0.000000 0.000000 12.463846 -5.765563 2.143122 -13.089906 -8.103424 -12.947658 29.982399 -5.471656 2.214394 -18.995984 -10.468646 10.768802 0.000000 0.000000 0.000000 2.840843 -3.917292 0.782080 7.139820 10.439109 -4.498187 15.135817 4.192567 -0.720781 6.867157 2.444160 0.044348 0.000000 0.000000 0.000000 1.490548 4.641511 -0.371981 0.200528 1.868537 0.178229 0.000000 0.000000 0.000000 3.060553 -0.403232 -1.450754 2.725315 -22.202539 1.562275 -24.057866 -15.968134 -57.069376 -2.398820 -53.449017 -14.068426 0.000000 0.000000 0.000000 4.463492 3.132379 -1.520929 8.342470 19.663647 -7.695029 -32.208379 29.409336 60.408939 -23.335637 67.401973 31.832677 0.000000 0.000000 0.000000 
1.902940 88.489105 3.473302 0.000000 0.000000 0.000000 3.021184 -23.917589 -1.139119 -37.609269 4.649618 14.088302 43.550639 -0.777824 1.006708 -6.201947 -1.412781 -4.589994 0.000000 0.000000 0.000000 12.600846 -5.617606 2.099646 -12.857533 -8.081001 -12.959101 29.869455 -5.556084 2.247114 -19.107550 -10.568344 10.766361 0.000000 0.000000 0.000000 2.985271 -3.716731 0.796973 7.157131 10.244062 -4.385995 15.083778 4.170654 -0.895220 6.880149 2.449450 -0.078148 0.000000 0.000000 0.000000 1.504847 4.637328 -0.401211 0.181590 1.845129 0.198925 0.000000 0.000000 0.000000 2.981681 -0.421438 -1.495935 2.682561 -22.472719 1.673896 -23.880399 -16.066234 -56.709022 -2.227407 -53.472663 -13.733945 0.000000 0.000000 0.000000 4.509924 3.171974 -1.588036 8.381405 19.669820 -7.818404 -32.256743 29.653017 60.587842 -23.786820 67.591347 32.459542 0.000000 0.000000 0.000000 
1.912957 88.441002 3.637304 0.000000 0.000000 0.000000 3.063893 -23.956653 -1.148623 -37.542220 4.653415 14.060222 43.560925 -0.759518 1.022710 -6.217172 -1.400434 -4.556651 0.000000 0.000000 0.000000 12.728725 -5.486192 2.058722 -12.642100 -8.061869 -12.971392 29.765240 -5.632597 2.275435 -19.212115 -10.657578 10.761497 0.000000 0.000000 0.000000 3.128859 -3.522144 0.812472 7.182433 10.058363 -4.271508 15.032087 4.140453 -1.067358 6.894620 2.449762 -0.199880 0.000000 0.000000 0.000000 1.515037 4.630035 -0.430858 0.161456 1.820967 0.219326 0.000000 0.000000 0.000000 2.905670 -0.442292 -1.542189 2.640919 -22.742500 1.779696 -23.690885 -16.151690 -56.344508 -2.048214 -53.475498 -13.399290 0.000000 0.000000 0.000000 4.553869 3.208488 -1.654739 8.419945 19.672584 -7.948353 -32.293186 29.865856 60.738045 -24.199377 67.734351 33.041515 0.000000 0.000000 0.000000 
